<svg width="24" height="24" viewBox="0 0 24 24" fill="none" xmlns="http://www.w3.org/2000/svg">
<g clip-path="url(#clip0_86802_5386)">
<path d="M1.4541 4.86914H5.09047" stroke="#DA0175" stroke-width="1.5" stroke-linecap="round" stroke-linejoin="round"/>
<path d="M1.4541 19.4785H5.09047" stroke="#DA0175" stroke-width="1.5" stroke-linecap="round" stroke-linejoin="round"/>
<path d="M13.0908 4.86914H22.5454" stroke="#DA0175" stroke-width="1.5" stroke-linecap="round" stroke-linejoin="round"/>
<path d="M13.0908 19.4785H22.5454" stroke="#DA0175" stroke-width="1.5" stroke-linecap="round" stroke-linejoin="round"/>
<path d="M1.4541 12.1738H12.3632" stroke="#DA0175" stroke-width="1.5" stroke-linecap="round" stroke-linejoin="round"/>
<path d="M20.3633 12.1738H22.5451" stroke="#DA0175" stroke-width="1.5" stroke-linecap="round" stroke-linejoin="round"/>
<path d="M9.09109 8.00013C10.8986 8.00013 12.3638 6.59858 12.3638 4.86969C12.3638 3.1408 10.8986 1.73926 9.09109 1.73926C7.28361 1.73926 5.81836 3.1408 5.81836 4.86969C5.81836 6.59858 7.28361 8.00013 9.09109 8.00013Z" stroke="#DA0175" stroke-width="1.5" stroke-linecap="round" stroke-linejoin="round"/>
<path d="M9.09109 22.6085C10.8986 22.6085 12.3638 21.207 12.3638 19.4781C12.3638 17.7492 10.8986 16.3477 9.09109 16.3477C7.28361 16.3477 5.81836 17.7492 5.81836 19.4781C5.81836 21.207 7.28361 22.6085 9.09109 22.6085Z" stroke="#DA0175" stroke-width="1.5" stroke-linecap="round" stroke-linejoin="round"/>
<path d="M16.3635 15.3038C18.171 15.3038 19.6363 13.9023 19.6363 12.1734C19.6363 10.4445 18.171 9.04297 16.3635 9.04297C14.5561 9.04297 13.0908 10.4445 13.0908 12.1734C13.0908 13.9023 14.5561 15.3038 16.3635 15.3038Z" stroke="#DA0175" stroke-width="1.5" stroke-linecap="round" stroke-linejoin="round"/>
</g>
<defs>
<clipPath id="clip0_86802_5386">
<rect width="24" height="24" fill="white"/>
</clipPath>
</defs>
</svg>
